<svg width="147" height="147" viewBox="0 0 147 147" fill="none" xmlns="http://www.w3.org/2000/svg">
<path d="M66.17 89.1824H80.8269H66.17ZM73.5 45.2715V48.408V45.2715ZM93.4607 53.5393L91.2432 55.7568L93.4607 53.5393ZM101.728 73.5H98.592H101.728ZM48.408 73.5H45.2715H48.408ZM55.7568 55.7568L53.5393 53.5393L55.7568 55.7568ZM62.4094 84.5906C60.2165 82.3972 58.7233 79.6028 58.1186 76.5609C57.5138 73.5189 57.8246 70.3659 59.0117 67.5005C60.1988 64.6351 62.2088 62.1861 64.7877 60.4631C67.3666 58.7401 70.3985 57.8204 73.5 57.8204C76.6015 57.8204 79.6334 58.7401 82.2123 60.4631C84.7912 62.1861 86.8012 64.6351 87.9883 67.5005C89.1754 70.3659 89.4862 73.5189 88.8814 76.5609C88.2767 79.6028 86.7835 82.3972 84.5907 84.5906L82.8719 86.3063C81.8892 87.2891 81.1098 88.4558 80.5781 89.7399C80.0464 91.0239 79.7728 92.4002 79.773 93.7899V95.4554C79.773 97.1191 79.1121 98.7147 77.9357 99.8911C76.7593 101.068 75.1637 101.728 73.5 101.728C71.8363 101.728 70.2407 101.068 69.0643 99.8911C67.8879 98.7147 67.227 97.1191 67.227 95.4554V93.7899C67.227 90.9828 66.1104 88.2885 64.1282 86.3063L62.4094 84.5906Z" stroke="#EC7979" stroke-width="6.83333" stroke-linecap="round" stroke-linejoin="round"/>
<circle cx="73.5" cy="73.5" r="39.2765" stroke="#EC7979"/>
</svg>
